HIERARCHY
ROOT Hips
{
	OFFSET 0.000000 0.000000 0.000000
	CHANNELS 6 Xposition Yposition Zposition Xrotation Yrotation Zrotation
	JOINT LeftUpLeg_virtual
	{
		OFFSET 0.000000 0.000000 0.000000
		CHANNELS 3 Xrotation Yrotation Zrotation
		JOINT LeftUpLeg
		{
			OFFSET 13.026900 -6.336304 -1.092800
			CHANNELS 3 Xrotation Yrotation Zrotation
			JOINT LeftLeg
			{
				OFFSET 0.524474 -46.096886 9.782700
				CHANNELS 3 Xrotation Yrotation Zrotation
				JOINT LeftFoot
				{
					OFFSET -0.524474 -53.427422 -12.948200
					CHANNELS 3 Xrotation Yrotation Zrotation
					JOINT LeftToeBase
					{
						OFFSET 0.192200 -14.009700 16.364100
						CHANNELS 3 Xrotation Yrotation Zrotation
						JOINT LeftToe_End
						{
							OFFSET -1.784700 -0.561700 9.474800
							CHANNELS 3 Xrotation Yrotation Zrotation
							End Site
							{
								OFFSET 0 0 0
							}
						}
					}
				}
			}
		}
	}
	JOINT RightUpLeg_virtual
	{
		OFFSET 0.000000 0.000000 0.000000
		CHANNELS 3 Xrotation Yrotation Zrotation
		JOINT RightUpLeg
		{
			OFFSET -12.883000 -6.336304 -1.092800
			CHANNELS 3 Xrotation Yrotation Zrotation
			JOINT RightLeg
			{
				OFFSET -0.524587 -46.096825 9.782800
				CHANNELS 3 Xrotation Yrotation Zrotation
				JOINT RightFoot
				{
					OFFSET 0.524587 -53.427383 -12.948300
					CHANNELS 3 Xrotation Yrotation Zrotation
					JOINT RightToeBase
					{
						OFFSET -0.192200 -14.009700 16.364100
						CHANNELS 3 Xrotation Yrotation Zrotation
						JOINT RightToe_End
						{
							OFFSET 1.784700 -0.561700 9.474800
							CHANNELS 3 Xrotation Yrotation Zrotation
							End Site
							{
								OFFSET 0 0 0
							}
						}
					}
				}
			}
		}
	}
	JOINT Spine_virtual
	{
		OFFSET 0.000000 0.000000 0.000000
		CHANNELS 3 Xrotation Yrotation Zrotation
		JOINT Spine
		{
			OFFSET 0.072000 7.257294 -0.789700
			CHANNELS 3 Xrotation Yrotation Zrotation
			JOINT Spine1
			{
				OFFSET 0.000000 12.508769 -0.658067
				CHANNELS 3 Xrotation Yrotation Zrotation
				JOINT Spine1_split
				{
					OFFSET 0.000000 12.508769 -0.658067
					CHANNELS 3 Xrotation Yrotation Zrotation
					JOINT Spine2
					{
						OFFSET 0.000000 12.508769 -0.658067
						CHANNELS 3 Xrotation Yrotation Zrotation
						JOINT Neck_virtual
						{
							OFFSET 0.000000 0.000000 0.000000
							CHANNELS 3 Xrotation Yrotation Zrotation
							JOINT Neck
							{
								OFFSET 0.000000 14.033295 7.520400
								CHANNELS 3 Xrotation Yrotation Zrotation
								JOINT Head
								{
									OFFSET 0.000000 8.198502 5.703100
									CHANNELS 3 Xrotation Yrotation Zrotation
									JOINT HeadTop_End
									{
										OFFSET 0.000000 17.760803 13.332701
										CHANNELS 3 Xrotation Yrotation Zrotation
										End Site
										{
											OFFSET 0 0 0
										}
									}
								}
							}
						}
						JOINT LeftShoulder_virtual
						{
							OFFSET 0.000000 0.000000 0.000000
							CHANNELS 3 Xrotation Yrotation Zrotation
							JOINT LeftShoulder
							{
								OFFSET 6.292450 5.785301 -0.669000
								CHANNELS 3 Xrotation Yrotation Zrotation
								JOINT LeftShoulder_split
								{
									OFFSET 6.292450 5.785301 -0.669000
									CHANNELS 3 Xrotation Yrotation Zrotation
									JOINT LeftArm
									{
										OFFSET 13.907140 -6.093903 1.965100
										CHANNELS 3 Xrotation Yrotation Zrotation
										JOINT LeftForeArm
										{
											OFFSET 34.140198 0.000000 0.000000
											CHANNELS 3 Xrotation Yrotation Zrotation
											JOINT LeftHand
											{
												OFFSET 40.960209 0.000000 0.000000
												CHANNELS 3 Xrotation Yrotation Zrotation
												End Site
												{
													OFFSET 0 0 0
												}
											}
										}
									}
								}
							}
						}
						JOINT RightShoulder_virtual
						{
							OFFSET 0.000000 0.000000 0.000000
							CHANNELS 3 Xrotation Yrotation Zrotation
							JOINT RightShoulder
							{
								OFFSET -6.292450 5.785301 -0.669000
								CHANNELS 3 Xrotation Yrotation Zrotation
								JOINT RightShoulder_split
								{
									OFFSET -6.292450 5.785301 -0.669000
									CHANNELS 3 Xrotation Yrotation Zrotation
									JOINT RightArm
									{
										OFFSET -13.907140 -6.093903 1.965100
										CHANNELS 3 Xrotation Yrotation Zrotation
										JOINT RightForeArm
										{
											OFFSET -34.140198 0.000000 0.000000
											CHANNELS 3 Xrotation Yrotation Zrotation
											JOINT RightHand
											{
												OFFSET -40.960209 0.000000 0.000000
												CHANNELS 3 Xrotation Yrotation Zrotation
												End Site
												{
													OFFSET 0 0 0
												}
											}
										}
									}
								}
							}
						}
					}
				}
			}
		}
	}
}
MOTION
Frames: 5
Frame Time: 0.03333333
12.372408 236.363647 78.431396 0.000000 0.000000 0.000000 7.971251 18.284946 -2.954014 -38.214178 20.436575 11.744918 57.294683 -5.133041 -0.058087 7.222124 -0.291334 -12.975788 0.000006 -0.000009 -0.000005 0.000000 0.000000 0.000000 7.971251 18.284946 -2.954014 -55.501509 2.682212 -16.501935 27.059989 8.795968 0.636330 10.162438 15.725577 24.300126 0.000004 0.000006 0.000001 0.000000 0.000000 0.000000 7.971251 18.284946 -2.954014 7.282092 -1.611247 -2.345844 14.380980 -3.151452 1.159757 0.000000 0.000000 0.000000 0.000000 0.000000 0.000000 14.371305 -3.129674 1.438657 -3.462771 0.844772 -7.984259 -5.711792 -9.753868 14.359867 0.000000 0.000000 0.000000 14.371305 -3.129674 1.438657 -1.997459 13.240467 7.601031 0.000000 0.000000 0.000000 -111.037320 -54.183669 -122.479184 -179.999650 -86.713179 -179.999691 0.000000 0.000000 0.000000 14.371305 -3.129674 1.438657 1.996423 14.431543 1.991243 0.000000 0.000000 0.000000 -35.368598 39.909724 63.868491 0.000025 50.063634 -0.000016 0.000000 0.000000 0.000000 
12.766330 230.465759 84.931007 0.000000 0.000000 0.000000 6.077648 18.345722 -2.011849 -37.202685 20.854518 11.181338 55.535394 -2.829758 0.008547 10.118646 -1.011813 -12.582090 0.000005 -0.000003 -0.000003 0.000000 0.000000 0.000000 6.077648 18.345722 -2.011849 -51.732983 2.068293 -17.058013 26.855378 8.316503 0.815309 12.552704 18.459968 23.488165 0.000002 0.000004 -0.000006 0.000000 0.000000 0.000000 6.077648 18.345722 -2.011849 7.375967 -1.391305 -2.416983 14.411475 -2.597695 1.282297 0.000000 0.000000 0.000000 0.000000 0.000000 0.000000 14.393225 -2.607810 1.534273 -3.431886 0.659722 -7.971159 -4.476598 -10.464171 13.497320 0.000000 0.000000 0.000000 14.393225 -2.607810 1.534273 -1.645766 11.892282 6.117613 0.000000 0.000000 0.000000 -105.464466 -55.286649 -116.659112 -179.999800 -87.101127 -179.999786 0.000000 0.000000 0.000000 14.393225 -2.607810 1.534273 2.075060 14.947592 1.840486 0.000000 0.000000 0.000000 -36.947311 40.337567 63.095034 -0.000015 48.043834 0.000022 0.000000 0.000000 0.000000 
13.173794 223.300018 91.568321 0.000000 0.000000 0.000000 3.932917 17.873895 -0.967024 -34.997807 20.736529 10.511498 52.960375 -1.949248 0.034390 12.067349 -1.549131 -12.943673 -0.000009 -0.000013 0.000012 0.000000 0.000000 0.000000 3.932917 17.873895 -0.967024 -47.561329 0.859696 -17.056972 26.641332 7.737834 0.931726 15.020457 19.717540 21.457289 0.000001 0.000001 -0.000000 0.000000 0.000000 0.000000 3.932917 17.873895 -0.967024 7.433616 -1.145197 -2.523381 14.331764 -2.196023 1.072488 0.000000 0.000000 0.000000 0.000000 0.000000 0.000000 14.312111 -2.231724 1.291077 -3.139339 0.436493 -7.492983 -2.915441 -10.754771 12.844842 0.000000 0.000000 0.000000 14.312111 -2.231724 1.291077 -1.447293 10.959925 5.211208 0.000000 0.000000 0.000000 -99.827695 -56.207225 -110.766680 179.998366 -89.304512 179.997901 0.000000 0.000000 0.000000 14.312111 -2.231724 1.291077 2.080142 14.739085 2.062840 0.000000 0.000000 0.000000 -38.227824 39.650959 63.883681 0.000035 49.554382 -0.000037 0.000000 0.000000 0.000000 
13.593734 214.971497 98.262497 0.000000 0.000000 0.000000 1.839021 17.112694 -0.024772 -32.080019 20.310870 9.637320 49.266650 -2.211123 0.021655 13.146524 -1.934001 -14.280368 -0.000003 -0.000009 0.000009 0.000000 0.000000 0.000000 1.839021 17.112694 -0.024772 -43.128953 -0.822899 -16.661859 26.381454 7.322502 0.955091 17.394337 18.994744 18.953503 -0.000011 -0.000012 -0.000001 0.000000 0.000000 0.000000 1.839021 17.112694 -0.024772 7.415926 -0.895382 -2.577825 14.146510 -1.862271 0.698899 0.000000 0.000000 0.000000 0.000000 0.000000 0.000000 14.127821 -1.903763 0.895223 -2.828148 0.249445 -6.858323 -1.528169 -10.704886 12.569927 0.000000 0.000000 0.000000 14.127821 -1.903763 0.895223 -1.424545 10.926359 4.985062 0.000000 0.000000 0.000000 -95.634902 -56.829407 -106.432946 0.001235 -87.376616 0.001146 0.000000 0.000000 0.000000 14.127821 -1.903763 0.895223 2.043278 14.224848 2.274362 0.000000 0.000000 0.000000 -38.443054 37.741371 65.784380 -0.000013 54.705003 0.000024 0.000000 0.000000 0.000000 
13.970044 205.617950 104.924118 0.000000 0.000000 0.000000 0.032166 16.299705 0.572913 -29.037443 19.565268 8.803620 44.435466 -1.677689 0.034791 14.221228 -2.289406 -15.265570 0.000004 -0.000012 -0.000008 0.000000 0.000000 0.000000 0.032166 16.299705 0.572913 -38.530866 -2.734027 -15.878175 25.706196 6.976047 0.912096 19.778256 17.010292 16.449863 -0.000005 -0.000006 -0.000000 0.000000 0.000000 0.000000 0.032166 16.299705 0.572913 7.283766 -0.637356 -2.563844 13.838709 -1.453591 0.373007 0.000000 0.000000 0.000000 0.000000 0.000000 0.000000 13.820555 -1.493288 0.559344 -2.623818 0.132518 -6.409934 -0.659057 -10.625440 12.560557 0.000000 0.000000 0.000000 13.820555 -1.493288 0.559344 -1.521654 11.395741 5.359827 0.000000 0.000000 0.000000 -93.134588 -57.010121 -103.986338 0.000184 -83.810335 0.000124 0.000000 0.000000 0.000000 13.820555 -1.493288 0.559344 1.981501 13.730245 2.140652 0.000000 0.000000 0.000000 -37.170419 35.541982 67.869349 0.000017 61.773098 -0.000026 0.000000 0.000000 0.000000 
